<svg width="20" height="20" viewBox="0 0 20 20" fill="none" xmlns="http://www.w3.org/2000/svg">
<path d="M6.3505 6.91618C6.32016 7.2426 6.36193 7.58008 6.33927 7.91012C6.31446 8.2402 6.26886 8.5685 6.20272 8.8932C6.09206 9.3508 5.80252 9.74913 5.39485 10.0046C6.19839 10.5106 6.28922 11.2956 6.34242 12.0916C6.36903 12.5206 6.3576 12.9534 6.40311 13.379C6.4372 13.709 6.56981 13.7935 6.92251 13.8044C7.06655 13.8082 7.21413 13.8044 7.38103 13.8044V14.8242C6.33868 14.9958 5.4782 14.7098 5.26599 13.8558C5.19614 13.542 5.15304 13.2232 5.13712 12.9025C5.11427 12.5614 5.1521 12.2203 5.1257 11.8792C5.04984 10.9438 4.92471 10.6284 4 10.5844V9.42134C4.06624 9.40671 4.13327 9.3957 4.20079 9.38835C4.70856 9.36261 4.92471 9.21218 5.03466 8.72808C5.08718 8.45558 5.11886 8.1797 5.12944 7.90269C5.14037 7.36683 5.17983 6.83187 5.24766 6.29995C5.38047 5.54072 5.86559 5.17387 6.67306 5.12983C6.90045 5.11896 7.13157 5.12983 7.39324 5.12983V6.17163C7.2833 6.17887 7.18852 6.19356 7.09 6.19356C6.43425 6.17163 6.39996 6.38803 6.3505 6.91618ZM7.61295 9.32963H7.59777C7.50634 9.32428 7.41472 9.33652 7.32822 9.36567C7.24171 9.39481 7.16204 9.44026 7.09381 9.4994C7.02558 9.55854 6.97016 9.63019 6.93074 9.7102C6.89132 9.79021 6.8687 9.87699 6.86418 9.96551C6.85966 10.054 6.87333 10.1426 6.9044 10.2259C6.93547 10.3093 6.98333 10.3859 7.04519 10.4513C7.10706 10.5166 7.18171 10.5695 7.26483 10.6067C7.34794 10.644 7.43787 10.6649 7.5294 10.6683H7.57492C7.75534 10.6784 7.93253 10.6188 8.06756 10.5026C8.2026 10.3863 8.28444 10.223 8.2951 10.0484V10.0118C8.298 9.8339 8.22782 9.66213 8.09996 9.53423C7.9721 9.40632 7.79682 9.33274 7.61295 9.32963ZM9.98946 9.32963C9.81359 9.32402 9.64261 9.38612 9.51399 9.50232C9.38538 9.61852 9.30963 9.77933 9.30336 9.94948C9.3027 9.97034 9.30402 9.99121 9.3073 10.0118C9.30295 10.1014 9.31842 10.1908 9.35268 10.2741C9.38694 10.3574 9.4392 10.4326 9.50596 10.4948C9.57271 10.5569 9.65242 10.6046 9.73975 10.6345C9.82708 10.6644 9.92001 10.6759 10.0123 10.6683C10.1048 10.6736 10.1974 10.6595 10.2838 10.627C10.3701 10.5945 10.4482 10.5443 10.5126 10.4799C10.5771 10.4155 10.6264 10.3383 10.6571 10.2538C10.6879 10.1692 10.6994 10.0792 10.6909 9.98991C10.6955 9.90045 10.6804 9.81107 10.6465 9.72772C10.6126 9.64438 10.5607 9.56896 10.4944 9.5065C10.4281 9.44404 10.3487 9.39596 10.2617 9.36547C10.1747 9.33497 10.0819 9.32275 9.98966 9.32963H9.98946ZM12.4231 9.32963C12.237 9.32639 12.057 9.39425 11.9222 9.51852C11.7874 9.64279 11.7086 9.81345 11.7029 9.99353C11.7027 10.0822 11.7205 10.17 11.7554 10.2519C11.7903 10.3339 11.8416 10.4083 11.9064 10.471C11.9711 10.5337 12.048 10.5834 12.1327 10.6173C12.2173 10.6511 12.3081 10.6685 12.3997 10.6683H12.4073C12.7559 10.7272 13.1086 10.4014 13.1313 10.0082C13.131 9.91864 13.1124 9.83 13.0766 9.74738C13.0409 9.66477 12.9886 9.58979 12.9228 9.52676C12.8571 9.46372 12.7791 9.41386 12.6934 9.38003C12.6076 9.3462 12.5157 9.32908 12.4231 9.32963ZM15.7626 9.38454C15.3228 9.36547 15.1029 9.22324 14.9941 8.81979C14.926 8.56148 14.8841 8.29737 14.869 8.03119C14.8386 7.53966 14.8424 7.0445 14.8083 6.55296C14.7295 5.38666 13.857 4.97959 12.5908 5.18112V6.19356C12.7916 6.19356 12.947 6.19356 13.1031 6.19718C13.3723 6.2008 13.576 6.29995 13.6034 6.58976C13.6302 6.85383 13.6302 7.12153 13.6566 7.38922C13.7096 7.92118 13.7399 8.46038 13.8339 8.98491C13.9425 9.41003 14.2202 9.77649 14.6065 10.0046C13.9366 10.441 13.7395 11.0645 13.7045 11.7652C13.6848 12.2457 13.6741 12.7298 13.6475 13.2143C13.6249 13.6543 13.4657 13.7973 13.0069 13.8084C12.8783 13.812 12.7532 13.8231 12.6091 13.8303V14.8685C12.8783 14.8685 13.1246 14.8832 13.3709 14.8685C14.1366 14.8244 14.599 14.4648 14.7502 13.746C14.8142 13.35 14.8518 12.9503 14.8627 12.5496C14.8893 12.1829 14.8855 11.8125 14.9236 11.4493C14.9803 10.8807 15.2495 10.646 15.8368 10.6103C15.8924 10.6037 15.9471 10.5914 16 10.5737V9.41066C15.9015 9.3996 15.8337 9.38874 15.7618 9.38492L15.7626 9.38454Z" fill="white"/>
<circle cx="10" cy="10" r="9" stroke="white" stroke-width="2"/>
</svg>
