<svg width="15" height="18" viewBox="0 0 15 18" fill="none" xmlns="http://www.w3.org/2000/svg">
<path d="M7.3125 0C11.3511 5.39191e-07 14.625 3.42543 14.625 7.65039C14.6249 9.87531 13.7161 11.8776 12.2666 13.2754H12.2812L7.3125 18L2.34375 13.2754H2.3584C0.908895 11.8776 0.000114418 9.87531 0 7.65039C0 3.42543 3.27392 0 7.3125 0ZM7.40137 2.93652C6.74512 2.93652 6.15774 3.1336 5.63965 3.52734C5.12159 3.92108 4.77621 4.4358 4.60352 5.07129C4.07855 5.18873 3.65376 5.45853 3.3291 5.87988C3.00453 6.30122 2.8418 6.78158 2.8418 7.32031C2.8419 7.94874 3.06529 8.48092 3.51074 8.91602C3.95623 9.35098 4.49362 9.56836 5.12207 9.56836H10.0957C10.6137 9.56829 11.0544 9.38701 11.417 9.02441C11.7795 8.66179 11.9609 8.22111 11.9609 7.70312C11.9609 7.22669 11.8033 6.81073 11.4893 6.45508C11.175 6.09934 10.7793 5.89317 10.3027 5.83789C10.3027 5.02978 10.0209 4.34418 9.45801 3.78125C8.89505 3.21834 8.20952 2.93653 7.40137 2.93652Z" fill="#2ADFFF"/>
</svg>
